<mxfile host="app.diagrams.net" agent="Mozilla/5.0 (Windows NT 10.0; Win64; x64) AppleWebKit/537.36 (KHTML, like Gecko) Chrome/132.0.0.0 Safari/537.36" version="26.0.10">
  <diagram id="C5RBs43oDa-KdzZeNtuy" name="Page-1">
    <mxGraphModel dx="1430" dy="580" grid="1" gridSize="10" guides="1" tooltips="1" connect="1" arrows="1" fold="1" page="1" pageScale="1" pageWidth="827" pageHeight="1169" math="0" shadow="0">
      <root>
        <mxCell id="WIyWlLk6GJQsqaUBKTNV-0" />
        <mxCell id="WIyWlLk6GJQsqaUBKTNV-1" parent="WIyWlLk6GJQsqaUBKTNV-0" />
        <mxCell id="WIWx7EF0oUpYT1g42AMl-2" value="&lt;font style=&quot;font-size: 20px;&quot;&gt;&lt;b&gt;Diagrama de Contexto&lt;/b&gt;&lt;/font&gt;" style="text;html=1;align=center;verticalAlign=middle;whiteSpace=wrap;rounded=0;" parent="WIyWlLk6GJQsqaUBKTNV-1" vertex="1">
          <mxGeometry x="249" y="50" width="330" height="30" as="geometry" />
        </mxCell>
        <mxCell id="WIWx7EF0oUpYT1g42AMl-72" value="" style="edgeStyle=orthogonalEdgeStyle;rounded=1;orthogonalLoop=1;jettySize=auto;html=1;curved=0;strokeColor=light-dark(#707070,#EDEDED);dashed=1;dashPattern=12 12;entryX=0.015;entryY=0.32;entryDx=0;entryDy=0;endArrow=block;endFill=1;exitX=1.003;exitY=0.607;exitDx=0;exitDy=0;exitPerimeter=0;entryPerimeter=0;" parent="WIyWlLk6GJQsqaUBKTNV-1" source="WIWx7EF0oUpYT1g42AMl-60" target="WIWx7EF0oUpYT1g42AMl-74" edge="1">
          <mxGeometry relative="1" as="geometry">
            <mxPoint x="340" y="398" as="sourcePoint" />
          </mxGeometry>
        </mxCell>
        <mxCell id="WIWx7EF0oUpYT1g42AMl-73" value="&lt;font style=&quot;color: rgb(87, 87, 87); font-size: 8px; line-height: 30%;&quot;&gt;Envia solicitação de acesso às APIs&lt;br&gt;(internas e externas)&lt;/font&gt;&lt;div style=&quot;line-height: 20%;&quot;&gt;&lt;font style=&quot;font-size: 6px; color: rgb(87, 87, 87); line-height: 20%;&quot;&gt;[JSON/HTTPS]&lt;/font&gt;&lt;/div&gt;" style="edgeLabel;html=1;align=center;verticalAlign=middle;resizable=0;points=[];" parent="WIWx7EF0oUpYT1g42AMl-72" vertex="1" connectable="0">
          <mxGeometry x="-0.1403" relative="1" as="geometry">
            <mxPoint x="17" y="-21" as="offset" />
          </mxGeometry>
        </mxCell>
        <mxCell id="WIWx7EF0oUpYT1g42AMl-60" value="&lt;div style=&quot;line-height: 70%;&quot;&gt;&lt;font&gt;&lt;b style=&quot;line-height: 130%;&quot;&gt;GFO - Gestão Financeira e Orçamentária&lt;/b&gt;&lt;/font&gt;&lt;div&gt;&lt;font face=&quot;Verdana&quot; style=&quot;font-size: 6px; line-height: 70%;&quot;&gt;[Software System]&lt;/font&gt;&lt;/div&gt;&lt;div&gt;&lt;font face=&quot;Verdana&quot; style=&quot;font-size: 6px; line-height: 70%;&quot;&gt;&lt;br&gt;&lt;/font&gt;&lt;/div&gt;&lt;div&gt;&lt;font face=&quot;Verdana&quot; style=&quot;line-height: 70%; font-size: 8px;&quot;&gt;Permite aos usuários fazer uma gestão financeira e orçamentária do Tribunal de Justiça do estado de Minas Gerais.&lt;/font&gt;&lt;/div&gt;&lt;/div&gt;" style="rounded=0;whiteSpace=wrap;html=1;fillColor=#2D882D;fontColor=#ffffff;strokeColor=#2D7600;" parent="WIyWlLk6GJQsqaUBKTNV-1" vertex="1">
          <mxGeometry x="131" y="320" width="199" height="150" as="geometry" />
        </mxCell>
        <mxCell id="WIWx7EF0oUpYT1g42AMl-66" value="&lt;div style=&quot;line-height: 100%;&quot;&gt;SSC - Sistema de Segurança Corporativo&lt;br&gt;&lt;div&gt;&lt;font style=&quot;font-size: 6px; line-height: 70%;&quot; face=&quot;Verdana&quot;&gt;[Software System]&lt;/font&gt;&lt;/div&gt;&lt;div&gt;&lt;span style=&quot;font-size: 8px; font-family: Verdana; background-color: transparent; color: light-dark(rgb(255, 255, 255), rgb(18, 18, 18));&quot;&gt;Faz a gestão de acesso de usuários à aplicação Web.&lt;/span&gt;&lt;/div&gt;&lt;/div&gt;" style="rounded=0;whiteSpace=wrap;html=1;fillColor=light-dark(#999999,#515151);strokeColor=#36393d;fontColor=#FFFFFF;strokeWidth=0;" parent="WIyWlLk6GJQsqaUBKTNV-1" vertex="1">
          <mxGeometry x="520" y="240" width="160" height="70" as="geometry" />
        </mxCell>
        <mxCell id="WIWx7EF0oUpYT1g42AMl-67" value="" style="endArrow=block;html=1;rounded=0;exitX=0.5;exitY=1;exitDx=0;exitDy=0;entryX=0.5;entryY=0;entryDx=0;entryDy=0;dashed=1;dashPattern=8 8;strokeColor=#707070;endFill=1;" parent="WIyWlLk6GJQsqaUBKTNV-1" source="WIWx7EF0oUpYT1g42AMl-54" target="WIWx7EF0oUpYT1g42AMl-60" edge="1">
          <mxGeometry width="50" height="50" relative="1" as="geometry">
            <mxPoint x="180" y="190" as="sourcePoint" />
            <mxPoint x="120" y="240" as="targetPoint" />
          </mxGeometry>
        </mxCell>
        <mxCell id="WIWx7EF0oUpYT1g42AMl-71" value="&lt;font style=&quot;color: rgb(87, 87, 87);&quot;&gt;Acessa www.gfo.gov.br&lt;/font&gt;&lt;div&gt;&lt;font style=&quot;color: rgb(87, 87, 87);&quot;&gt;[https]&lt;/font&gt;&lt;/div&gt;" style="edgeLabel;html=1;align=center;verticalAlign=middle;resizable=0;points=[];" parent="WIWx7EF0oUpYT1g42AMl-67" vertex="1" connectable="0">
          <mxGeometry x="-0.3699" relative="1" as="geometry">
            <mxPoint y="9" as="offset" />
          </mxGeometry>
        </mxCell>
        <mxCell id="WIWx7EF0oUpYT1g42AMl-74" value="&lt;div style=&quot;line-height: 70%;&quot;&gt;&lt;div&gt;&lt;font style=&quot;line-height: 70%;&quot;&gt;MG- API&lt;/font&gt;&lt;/div&gt;&lt;div&gt;&lt;font style=&quot;font-size: 6px; line-height: 70%;&quot; face=&quot;Verdana&quot;&gt;[Software System]&lt;/font&gt;&lt;/div&gt;&lt;div&gt;&lt;font style=&quot;font-size: 6px; line-height: 70%;&quot; face=&quot;Verdana&quot;&gt;&lt;br&gt;&lt;/font&gt;&lt;/div&gt;&lt;div&gt;&lt;font style=&quot;line-height: 70%; font-size: 8px;&quot; face=&quot;Verdana&quot;&gt;Faz toda a gestão de acesso à API.&lt;/font&gt;&lt;/div&gt;&lt;/div&gt;" style="rounded=0;whiteSpace=wrap;html=1;fillColor=light-dark(#999999,#515151);strokeColor=#36393d;fontColor=#FFFFFF;strokeWidth=0;" parent="WIyWlLk6GJQsqaUBKTNV-1" vertex="1">
          <mxGeometry x="520" y="390" width="160" height="70" as="geometry" />
        </mxCell>
        <mxCell id="WIWx7EF0oUpYT1g42AMl-75" value="&lt;div style=&quot;line-height: 70%;&quot;&gt;&lt;div&gt;&lt;font style=&quot;line-height: 70%;&quot;&gt;Transações Bancárias&lt;/font&gt;&lt;/div&gt;&lt;div&gt;&lt;font style=&quot;font-size: 6px; line-height: 70%;&quot; face=&quot;Verdana&quot;&gt;[Software System]&lt;/font&gt;&lt;/div&gt;&lt;div&gt;&lt;font style=&quot;font-size: 6px; line-height: 70%;&quot; face=&quot;Verdana&quot;&gt;&lt;br&gt;&lt;/font&gt;&lt;/div&gt;&lt;div&gt;&lt;font style=&quot;line-height: 70%; font-size: 8px;&quot; face=&quot;Verdana&quot;&gt;Gestão das transações bancárias do TJ-MG.&lt;/font&gt;&lt;/div&gt;&lt;/div&gt;" style="rounded=0;whiteSpace=wrap;html=1;fillColor=light-dark(#999999,#515151);strokeColor=#36393d;fontColor=#FFFFFF;strokeWidth=0;" parent="WIyWlLk6GJQsqaUBKTNV-1" vertex="1">
          <mxGeometry x="520" y="509" width="160" height="70" as="geometry" />
        </mxCell>
        <mxCell id="WIWx7EF0oUpYT1g42AMl-78" value="" style="edgeStyle=orthogonalEdgeStyle;rounded=1;orthogonalLoop=1;jettySize=auto;html=1;curved=0;strokeColor=light-dark(#808080, #ededed);dashed=1;dashPattern=12 12;entryX=0.5;entryY=0;entryDx=0;entryDy=0;exitX=0.5;exitY=1;exitDx=0;exitDy=0;endArrow=none;endFill=1;startArrow=block;startFill=1;" parent="WIyWlLk6GJQsqaUBKTNV-1" source="WIWx7EF0oUpYT1g42AMl-74" target="WIWx7EF0oUpYT1g42AMl-75" edge="1">
          <mxGeometry relative="1" as="geometry">
            <mxPoint x="550" y="450" as="sourcePoint" />
            <mxPoint x="550" y="515" as="targetPoint" />
          </mxGeometry>
        </mxCell>
        <mxCell id="WIWx7EF0oUpYT1g42AMl-79" value="&lt;font style=&quot;color: rgb(87, 87, 87); line-height: 50%; font-size: 8px;&quot;&gt;Envia respostas para&amp;nbsp;&lt;/font&gt;&lt;div style=&quot;line-height: 50%;&quot;&gt;&lt;font style=&quot;font-size: 6px; color: rgb(87, 87, 87); line-height: 50%;&quot;&gt;[JSON/HTTPS]&lt;/font&gt;&lt;/div&gt;" style="edgeLabel;html=1;align=center;verticalAlign=middle;resizable=0;points=[];" parent="WIWx7EF0oUpYT1g42AMl-78" vertex="1" connectable="0">
          <mxGeometry x="-0.1403" relative="1" as="geometry">
            <mxPoint y="4" as="offset" />
          </mxGeometry>
        </mxCell>
        <mxCell id="WIWx7EF0oUpYT1g42AMl-83" value="" style="edgeStyle=orthogonalEdgeStyle;rounded=1;orthogonalLoop=1;jettySize=auto;html=1;curved=0;strokeColor=light-dark(#707070,#EDEDED);dashed=1;dashPattern=12 12;entryX=0;entryY=0.25;entryDx=0;entryDy=0;exitX=1.003;exitY=0.086;exitDx=0;exitDy=0;endArrow=none;endFill=1;startArrow=block;startFill=1;exitPerimeter=0;" parent="WIyWlLk6GJQsqaUBKTNV-1" source="WIWx7EF0oUpYT1g42AMl-60" target="WIWx7EF0oUpYT1g42AMl-66" edge="1">
          <mxGeometry relative="1" as="geometry">
            <mxPoint x="640" y="130" as="sourcePoint" />
            <mxPoint x="640" y="260" as="targetPoint" />
            <Array as="points">
              <mxPoint x="420" y="333" />
              <mxPoint x="420" y="258" />
            </Array>
          </mxGeometry>
        </mxCell>
        <mxCell id="WIWx7EF0oUpYT1g42AMl-84" value="&lt;font style=&quot;color: rgb(87, 87, 87); line-height: 50%; font-size: 8px;&quot;&gt;Envia informações de autorização do usuário logado.&lt;/font&gt;&lt;div style=&quot;line-height: 50%;&quot;&gt;&lt;font style=&quot;font-size: 6px; color: rgb(87, 87, 87); line-height: 50%;&quot;&gt;[JSON/HTTPS]&lt;/font&gt;&lt;/div&gt;" style="edgeLabel;html=1;align=center;verticalAlign=middle;resizable=0;points=[];" parent="WIWx7EF0oUpYT1g42AMl-83" vertex="1" connectable="0">
          <mxGeometry x="-0.1403" relative="1" as="geometry">
            <mxPoint y="-24" as="offset" />
          </mxGeometry>
        </mxCell>
        <mxCell id="WIWx7EF0oUpYT1g42AMl-86" value="&lt;div style=&quot;line-height: 70%;&quot;&gt;Keycloak - TJ&lt;br&gt;&lt;div&gt;&lt;font style=&quot;font-size: 6px; line-height: 70%;&quot; face=&quot;Verdana&quot;&gt;[Software System]&lt;/font&gt;&lt;/div&gt;&lt;div&gt;&lt;font style=&quot;font-size: 6px; line-height: 70%;&quot; face=&quot;Verdana&quot;&gt;&lt;br&gt;&lt;/font&gt;&lt;/div&gt;&lt;div&gt;&lt;font face=&quot;Verdana&quot;&gt;&lt;span style=&quot;font-size: 8px;&quot;&gt;Mantem a base de usuários a serem integrados com o sistema&lt;/span&gt;&lt;/font&gt;&lt;/div&gt;&lt;/div&gt;" style="rounded=0;whiteSpace=wrap;html=1;fillColor=light-dark(#999999,#515151);strokeColor=#36393d;fontColor=#FFFFFF;strokeWidth=0;" parent="WIyWlLk6GJQsqaUBKTNV-1" vertex="1">
          <mxGeometry x="520" y="120" width="160" height="70" as="geometry" />
        </mxCell>
        <mxCell id="WIWx7EF0oUpYT1g42AMl-87" value="" style="edgeStyle=orthogonalEdgeStyle;rounded=1;orthogonalLoop=1;jettySize=auto;html=1;curved=0;strokeColor=light-dark(#808080, #ededed);dashed=1;dashPattern=12 12;endArrow=block;endFill=1;startArrow=none;startFill=0;entryX=0.5;entryY=0;entryDx=0;entryDy=0;exitX=0.5;exitY=1;exitDx=0;exitDy=0;" parent="WIyWlLk6GJQsqaUBKTNV-1" target="WIWx7EF0oUpYT1g42AMl-66" edge="1" source="WIWx7EF0oUpYT1g42AMl-86">
          <mxGeometry relative="1" as="geometry">
            <mxPoint x="747" y="180" as="sourcePoint" />
            <mxPoint x="747" y="240" as="targetPoint" />
          </mxGeometry>
        </mxCell>
        <mxCell id="WIWx7EF0oUpYT1g42AMl-88" value="&lt;font style=&quot;color: rgb(87, 87, 87); line-height: 50%; font-size: 8px;&quot;&gt;Envia dados para autenticação dos usuários para&lt;/font&gt;&lt;div style=&quot;line-height: 50%;&quot;&gt;&lt;font style=&quot;font-size: 6px; color: rgb(87, 87, 87); line-height: 50%;&quot;&gt;[JSON/HTTPS]&lt;/font&gt;&lt;/div&gt;" style="edgeLabel;html=1;align=center;verticalAlign=middle;resizable=0;points=[];" parent="WIWx7EF0oUpYT1g42AMl-87" vertex="1" connectable="0">
          <mxGeometry x="-0.1403" relative="1" as="geometry">
            <mxPoint y="1" as="offset" />
          </mxGeometry>
        </mxCell>
        <mxCell id="TWzfvglw82yFJjgBc2zA-0" value="" style="edgeStyle=orthogonalEdgeStyle;rounded=1;orthogonalLoop=1;jettySize=auto;html=1;curved=0;strokeColor=light-dark(#707070,#EDEDED);dashed=1;dashPattern=12 12;entryX=0.459;entryY=1.015;entryDx=0;entryDy=0;exitX=0.997;exitY=0.303;exitDx=0;exitDy=0;endArrow=block;endFill=1;startArrow=none;startFill=0;entryPerimeter=0;exitPerimeter=0;" edge="1" parent="WIyWlLk6GJQsqaUBKTNV-1" source="WIWx7EF0oUpYT1g42AMl-60" target="WIWx7EF0oUpYT1g42AMl-66">
          <mxGeometry relative="1" as="geometry">
            <mxPoint x="360" y="395" as="sourcePoint" />
            <mxPoint x="549" y="320" as="targetPoint" />
          </mxGeometry>
        </mxCell>
        <mxCell id="TWzfvglw82yFJjgBc2zA-1" value="&lt;font color=&quot;#575757&quot;&gt;&lt;span style=&quot;font-size: 8px;&quot;&gt;Envia credenciais do usuário para autenticação para&lt;/span&gt;&lt;/font&gt;&lt;br&gt;&lt;div style=&quot;line-height: 50%;&quot;&gt;&lt;font style=&quot;font-size: 6px; color: rgb(87, 87, 87); line-height: 50%;&quot;&gt;[JSON/HTTPS]&lt;/font&gt;&lt;/div&gt;" style="edgeLabel;html=1;align=center;verticalAlign=middle;resizable=0;points=[];" vertex="1" connectable="0" parent="TWzfvglw82yFJjgBc2zA-0">
          <mxGeometry x="-0.1403" relative="1" as="geometry">
            <mxPoint x="-4" y="-15" as="offset" />
          </mxGeometry>
        </mxCell>
        <mxCell id="TWzfvglw82yFJjgBc2zA-2" value="" style="edgeStyle=orthogonalEdgeStyle;rounded=1;orthogonalLoop=1;jettySize=auto;html=1;curved=0;strokeColor=light-dark(#707070,#EDEDED);dashed=1;dashPattern=12 12;entryX=-0.006;entryY=0.842;entryDx=0;entryDy=0;endArrow=none;endFill=1;exitX=1.01;exitY=0.86;exitDx=0;exitDy=0;startArrow=block;startFill=1;entryPerimeter=0;exitPerimeter=0;" edge="1" parent="WIyWlLk6GJQsqaUBKTNV-1" source="WIWx7EF0oUpYT1g42AMl-60" target="WIWx7EF0oUpYT1g42AMl-74">
          <mxGeometry relative="1" as="geometry">
            <mxPoint x="330" y="440" as="sourcePoint" />
            <mxPoint x="520" y="440" as="targetPoint" />
          </mxGeometry>
        </mxCell>
        <mxCell id="TWzfvglw82yFJjgBc2zA-3" value="&lt;font style=&quot;color: rgb(87, 87, 87); line-height: 50%; font-size: 8px;&quot;&gt;Retorna resposta das APIs para&lt;/font&gt;&lt;div style=&quot;line-height: 50%;&quot;&gt;&lt;font style=&quot;font-size: 6px; color: rgb(87, 87, 87); line-height: 50%;&quot;&gt;[JSON/HTTPS]&lt;/font&gt;&lt;/div&gt;" style="edgeLabel;html=1;align=center;verticalAlign=middle;resizable=0;points=[];" vertex="1" connectable="0" parent="TWzfvglw82yFJjgBc2zA-2">
          <mxGeometry x="-0.1403" relative="1" as="geometry">
            <mxPoint x="13" y="-15" as="offset" />
          </mxGeometry>
        </mxCell>
        <mxCell id="TWzfvglw82yFJjgBc2zA-7" value="" style="group" vertex="1" connectable="0" parent="WIyWlLk6GJQsqaUBKTNV-1">
          <mxGeometry x="147.5" y="80" width="166" height="160" as="geometry" />
        </mxCell>
        <mxCell id="WIWx7EF0oUpYT1g42AMl-54" value="&lt;font style=&quot;line-height: 40%;&quot; face=&quot;Helvetica&quot;&gt;&lt;b&gt;&lt;font&gt;Usuário da Aplicação&lt;/font&gt;&lt;/b&gt;&lt;/font&gt;&lt;div style=&quot;line-height: 40%;&quot;&gt;&lt;font style=&quot;font-family: Verdana; font-size: 6px; line-height: 40%;&quot;&gt;[Person]&lt;/font&gt;&lt;/div&gt;&lt;div style=&quot;line-height: 40%;&quot;&gt;&lt;font face=&quot;Verdana&quot;&gt;&lt;span style=&quot;font-size: 6px;&quot;&gt;&lt;br&gt;&lt;/span&gt;&lt;/font&gt;&lt;div style=&quot;line-height: 60%;&quot;&gt;&lt;font style=&quot;font-size: 8px; line-height: 60%;&quot; face=&quot;Verdana&quot;&gt;Um usuário com acesso configurado no SSC&lt;/font&gt;&lt;/div&gt;&lt;/div&gt;" style="rounded=1;whiteSpace=wrap;html=1;fillColor=#116611;strokeColor=none;fontColor=#ffffff;" parent="TWzfvglw82yFJjgBc2zA-7" vertex="1">
          <mxGeometry y="70" width="166" height="90" as="geometry" />
        </mxCell>
        <mxCell id="WIWx7EF0oUpYT1g42AMl-55" value="" style="ellipse;whiteSpace=wrap;html=1;aspect=fixed;fillColor=#116611;fontColor=#ffffff;strokeColor=light-dark(#0E4F0E,#EDEDED);" parent="TWzfvglw82yFJjgBc2zA-7" vertex="1">
          <mxGeometry x="43" width="80" height="80" as="geometry" />
        </mxCell>
      </root>
    </mxGraphModel>
  </diagram>
</mxfile>
